<svg xmlns="http://www.w3.org/2000/svg" viewBox="0 0 48 48">
  <defs>
    <linearGradient id="logo-bg" x1="5" y1="4" x2="43" y2="45" gradientUnits="userSpaceOnUse">
      <stop offset="0" stop-color="#14c2d0"/>
      <stop offset="0.52" stop-color="#0799ad"/>
      <stop offset="1" stop-color="#686fe7"/>
    </linearGradient>
    <radialGradient id="logo-shine" cx="11.5" cy="8.5" r="16" gradientUnits="userSpaceOnUse">
      <stop offset="0" stop-color="#ffffff" stop-opacity="0.42"/>
      <stop offset="0.54" stop-color="#ffffff" stop-opacity="0.09"/>
      <stop offset="1" stop-color="#ffffff" stop-opacity="0"/>
    </radialGradient>
    <filter id="mark-shadow" x="-24%" y="-22%" width="150%" height="156%">
      <feDropShadow dx="0" dy="3.2" stdDeviation="2" flood-color="#000000" flood-opacity="0.18"/>
    </filter>
  </defs>
  <rect width="48" height="48" fill="url(#logo-bg)"/>
  <rect width="48" height="48" fill="url(#logo-shine)"/>
  <g transform="translate(4.8 4.8) scale(.8)" filter="url(#mark-shadow)">
    <path d="M15 8h17l6 6v26H15a5 5 0 0 1-5-5V13a5 5 0 0 1 5-5Z"
      fill="#f4faf7" fill-opacity=".18" stroke="#f4faf7" stroke-opacity=".82" stroke-width="2.1" stroke-linejoin="round"/>
    <path d="M32 8v7h6"
      fill="none" stroke="#f4faf7" stroke-opacity=".74" stroke-width="2.1" stroke-linecap="round" stroke-linejoin="round"/>
    <path d="M16 31c4-7 8-3 12-9 3-4 5-6 10-6"
      fill="none" stroke="#f7ff8f" stroke-width="2.9" stroke-linecap="round" stroke-linejoin="round"/>
    <path d="M16 36h21"
      fill="none" stroke="#f7ff8f" stroke-width="2.2" stroke-linecap="round" stroke-linejoin="round" opacity=".72"/>
    <circle cx="16" cy="31" r="2.3" fill="#7df2b0" stroke="#08111f" stroke-opacity=".34" stroke-width="1"/>
    <circle cx="28" cy="22" r="2.3" fill="#3ff2d3" stroke="#08111f" stroke-opacity=".34" stroke-width="1"/>
    <circle cx="38" cy="16" r="2.3" fill="#ffd86b" stroke="#08111f" stroke-opacity=".34" stroke-width="1"/>
  </g>
</svg>
